<?xml version="1.0" encoding="utf-8"?>
<!-- Generator: Adobe Illustrator 25.0.0, SVG Export Plug-In . SVG Version: 6.00 Build 0)  -->
<svg version="1.1" xmlns="http://www.w3.org/2000/svg" xmlns:xlink="http://www.w3.org/1999/xlink" x="0px" y="0px"
	 viewBox="0 0 20 20" enable-background="new 0 0 20 20" xml:space="preserve">
<g id="Calque_2" display="none">
	<rect display="inline" fill="#E0E0E0" width="20" height="20"/>
</g>
<g id="Calque_3">
	<g>
		<g id="Ellipse_31" transform="translate(0 13)">
			<circle fill="none" cx="3" cy="3.5" r="3"/>
			<path fill="#FFFFFF" d="M3,6.5c-1.65,0-3-1.35-3-3s1.35-3,3-3s3,1.35,3,3S4.65,6.5,3,6.5z M3,2C2.17,2,1.5,2.67,1.5,3.5
				S2.17,5,3,5s1.5-0.67,1.5-1.5S3.83,2,3,2z"/>
		</g>
		<g id="Ellipse_32" transform="translate(4 3)">
			<circle fill="none" cx="3" cy="3.5" r="3"/>
			<path fill="#FFFFFF" d="M3,6.5c-1.65,0-3-1.35-3-3s1.35-3,3-3s3,1.35,3,3S4.65,6.5,3,6.5z M3,2C2.17,2,1.5,2.67,1.5,3.5
				S2.17,5,3,5s1.5-0.67,1.5-1.5S3.83,2,3,2z"/>
		</g>
		<g id="Ellipse_33" transform="translate(9 12)">
			<circle fill="none" cx="3" cy="3.5" r="3"/>
			<path fill="#FFFFFF" d="M3,6.5c-1.65,0-3-1.35-3-3s1.35-3,3-3s3,1.35,3,3S4.65,6.5,3,6.5z M3,2C2.17,2,1.5,2.67,1.5,3.5
				S2.17,5,3,5s1.5-0.67,1.5-1.5S3.83,2,3,2z"/>
		</g>
		<g id="Ellipse_34" transform="translate(14)">
			<circle fill="none" cx="3" cy="3.5" r="3"/>
			<path fill="#FFFFFF" d="M3,6.5c-1.65,0-3-1.35-3-3s1.35-3,3-3s3,1.35,3,3S4.65,6.5,3,6.5z M3,2C2.17,2,1.5,2.67,1.5,3.5
				S2.17,5,3,5s1.5-0.67,1.5-1.5S3.83,2,3,2z"/>
		</g>
		<path id="Rectangle_382" fill="#FFFFFF" d="M2.88,13.16l2.32-4.98c0.18-0.38,0.62-0.54,1-0.36l0,0c0.38,0.18,0.54,0.62,0.36,1
			l-2.32,4.98c-0.18,0.38-0.62,0.54-1,0.36l0,0C2.87,13.98,2.71,13.53,2.88,13.16z"/>
		<path id="Rectangle_384" fill="#FFFFFF" d="M11.97,12.46l3.17-6.8c0.18-0.38,0.62-0.54,1-0.36l0,0c0.38,0.18,0.54,0.62,0.36,1
			l-3.17,6.8c-0.18,0.38-0.62,0.54-1,0.36l0,0C11.96,13.28,11.8,12.83,11.97,12.46z"/>
		<path id="Rectangle_385" fill="#FFFFFF" d="M10.15,13.61L7.4,8.85C7.2,8.49,7.32,8.03,7.68,7.82l0,0C8.04,7.61,8.49,7.74,8.7,8.1
			l2.75,4.76c0.21,0.36,0.08,0.82-0.27,1.02l0,0C10.82,14.09,10.36,13.97,10.15,13.61z"/>
	</g>
</g>
</svg>
