<?xml version="1.0" encoding="utf-8"?>
  <svg id="Composant_65_1" data-name="Composant 65 – 1" xmlns="http://www.w3.org/2000/svg" width="20.901" height="19.9" viewBox="0 0 20.901 19.9">
    <path id="Tracé_484" data-name="Tracé 484" d="M3.62.247A.788.788,0,0,0,3.033,0H2.969a.788.788,0,0,0-.593.247L.183,2.659a.684.684,0,0,0,.074,1l.023.017a.822.822,0,0,0,1.1-.088L2.268,2.6V7.283a.764.764,0,0,0,.8.717.759.759,0,0,0,.753-.717V2.712l.8.875a.825.825,0,0,0,1.1.09A.7.7,0,0,0,6,3.185a.684.684,0,0,0-.18-.523Z" transform="translate(16.658 0) rotate(45)" fill="#fff"/>
    <path id="Tracé_484-2" data-name="Tracé 484" d="M3.62,7.753A.788.788,0,0,1,3.033,8H2.969a.788.788,0,0,1-.593-.247L.183,5.342a.684.684,0,0,1,.074-1l.023-.017a.822.822,0,0,1,1.1.088l.894.984V.718A.764.764,0,0,1,3.073,0a.759.759,0,0,1,.753.717V5.289l.8-.875a.825.825,0,0,1,1.1-.09A.7.7,0,0,1,6,4.815a.685.685,0,0,1-.18.523Z" transform="translate(9.9 5.658) rotate(135)" fill="#fff"/>
    <path id="Tracé_484-3" data-name="Tracé 484" d="M3.62,7.753A.788.788,0,0,1,3.033,8H2.969a.788.788,0,0,1-.593-.247L.183,5.341a.684.684,0,0,1,.074-1l.023-.017a.822.822,0,0,1,1.1.088l.894.984V.718A.764.764,0,0,1,3.072,0a.759.759,0,0,1,.753.717V5.289l.8-.875a.825.825,0,0,1,1.1-.09A.7.7,0,0,1,6,4.815a.684.684,0,0,1-.18.523Z" transform="translate(11.001 14.242) rotate(-45)" fill="#fff"/>
    <path id="Tracé_484-4" data-name="Tracé 484" d="M3.619.247A.788.788,0,0,0,3.033,0H2.968a.788.788,0,0,0-.593.247L.183,2.659a.684.684,0,0,0,.074,1l.023.017a.822.822,0,0,0,1.1-.088L2.268,2.6V7.283a.764.764,0,0,0,.8.717.759.759,0,0,0,.753-.717V2.712l.8.875a.825.825,0,0,0,1.1.09A.7.7,0,0,0,6,3.185a.685.685,0,0,0-.18-.523Z" transform="translate(4.243 19.9) rotate(-135)" fill="#fff"/>
  </svg>
