<?xml version="1.0" encoding="utf-8"?>
<!-- Generator: Adobe Illustrator 25.0.0, SVG Export Plug-In . SVG Version: 6.00 Build 0)  -->
<svg version="1.1" xmlns="http://www.w3.org/2000/svg" xmlns:xlink="http://www.w3.org/1999/xlink" x="0px" y="0px"
	 viewBox="0 0 20 20" enable-background="new 0 0 20 20" xml:space="preserve">
<g id="Calque_2" display="none">
	<rect display="inline" fill="#E0E0E0" width="20" height="20"/>
</g>
<g id="Calque_1">
	<g id="Icon" transform="translate(-216 -56.131)">
		<path id="Tracé_496" fill="#FFFFFF" d="M234.17,57.2c-1.33,0-2.5,0.87-2.89,2.14h-1.02l-0.02,0.08l-0.18,0.71l-0.03,0.12h1.13
			c0,0.05,0.01,0.1,0.01,0.16h-0.92l-0.02,0.08l-0.17,0.71l-0.03,0.12h1.38c0.49,1.09,1.58,1.78,2.77,1.78
			c0.54,0,1.06-0.14,1.53-0.4l0.05-0.03v-1.15l-0.16,0.14c-0.39,0.34-0.89,0.52-1.4,0.52l0,0c-0.68,0-1.32-0.32-1.72-0.87h2.27
			l0.02-0.07l0.25-0.71l0.05-0.13h-2.96c-0.01-0.05-0.01-0.1-0.02-0.16h3.02l0.02-0.07l0.25-0.71l0.05-0.13h-3.17
			c0.34-0.75,1.09-1.22,1.91-1.22h0.03c0.49,0,0.97,0.17,1.35,0.48l0.11,0.09l0.05-0.14l0.24-0.71l0.02-0.07l-0.06-0.04
			c-0.51-0.34-1.1-0.52-1.71-0.52H234.17z"/>
		<path id="Tracé_484" fill="#FFFFFF" d="M219.41,65.6c-0.1-0.11-0.24-0.17-0.39-0.17h-0.04c-0.15,0-0.3,0.06-0.4,0.17l-1.46,1.69
			c-0.18,0.21-0.16,0.52,0.05,0.7l0.01,0.01c0.22,0.18,0.54,0.15,0.73-0.06l0.6-0.69v2.95c0,0.29,0.23,0.52,0.52,0.52
			c0.29,0,0.52-0.23,0.52-0.52v-2.87l0.53,0.61c0.19,0.21,0.51,0.24,0.73,0.06c0.21-0.17,0.25-0.49,0.07-0.7c0,0,0-0.01-0.01-0.01
			L219.41,65.6z"/>
		<path id="Tracé_484-2" fill="#FFFFFF" d="M226.41,61.6c-0.1-0.11-0.24-0.17-0.39-0.17h-0.04c-0.15,0-0.3,0.06-0.4,0.17
			l-1.46,1.69c-0.18,0.21-0.16,0.52,0.05,0.7l0.01,0.01c0.22,0.18,0.54,0.15,0.73-0.06l0.6-0.69v2.95c0,0.29,0.23,0.52,0.52,0.52
			c0.29,0,0.52-0.23,0.52-0.52v-2.87l0.53,0.61c0.19,0.21,0.51,0.24,0.73,0.06c0.21-0.17,0.25-0.49,0.07-0.7c0,0,0-0.01-0.01-0.01
			L226.41,61.6z"/>
		<path id="Rectangle_360" fill="#FFFFFF" d="M217,73.07h4c0.55,0,1,0.45,1,1l0,0c0,0.55-0.45,1-1,1h-4c-0.55,0-1-0.45-1-1l0,0
			C216,73.51,216.45,73.07,217,73.07z"/>
		<path id="Rectangle_361" fill="#FFFFFF" d="M224,73.07h4c0.55,0,1,0.45,1,1l0,0c0,0.55-0.45,1-1,1h-4c-0.55,0-1-0.45-1-1l0,0
			C223,73.51,223.45,73.07,224,73.07z"/>
		<path id="Rectangle_362" fill="#FFFFFF" d="M231,73.07h4c0.55,0,1,0.45,1,1l0,0c0,0.55-0.45,1-1,1h-4c-0.55,0-1-0.45-1-1l0,0
			C230,73.51,230.45,73.07,231,73.07z"/>
		<path id="Rectangle_363" fill="#FFFFFF" d="M231,70.07h4c0.55,0,1,0.45,1,1l0,0c0,0.55-0.45,1-1,1h-4c-0.55,0-1-0.45-1-1l0,0
			C230,70.51,230.45,70.07,231,70.07z"/>
		<path id="Rectangle_364" fill="#FFFFFF" d="M231,67.07h4c0.55,0,1,0.45,1,1l0,0c0,0.55-0.45,1-1,1h-4c-0.55,0-1-0.45-1-1l0,0
			C230,67.51,230.45,67.07,231,67.07z"/>
		<path id="Rectangle_365" fill="#FFFFFF" d="M224,70.07h4c0.55,0,1,0.45,1,1l0,0c0,0.55-0.45,1-1,1h-4c-0.55,0-1-0.45-1-1l0,0
			C223,70.51,223.45,70.07,224,70.07z"/>
	</g>
</g>
</svg>
