<?xml version="1.0" encoding="utf-8"?>
<!-- Generator: Adobe Illustrator 25.0.0, SVG Export Plug-In . SVG Version: 6.00 Build 0)  -->
<svg version="1.1" xmlns="http://www.w3.org/2000/svg" xmlns:xlink="http://www.w3.org/1999/xlink" x="0px" y="0px"
	 viewBox="0 0 20 20" enable-background="new 0 0 20 20" xml:space="preserve">
<g id="Calque_2" display="none">
	<rect display="inline" fill="#E0E0E0" width="20" height="20"/>
</g>
<g id="Calque_3">
	<path fill="#FFFFFF" d="M20,0.97c0.03-0.49-0.34-0.92-0.84-0.96c0,0,0,0-0.01,0c-0.08,0-0.16,0.01-0.24,0.04l-5.86,1.93L7.19,0.04
		C7.08,0,6.96-0.01,6.84,0.01l0,0C6.8,0.01,6.75,0.02,6.71,0.04L0.6,2.05C0.22,2.2-0.02,2.57,0,2.97l0,16.07
		c-0.03,0.5,0.34,0.93,0.85,0.96c0.08,0,0.16-0.01,0.24-0.04l5.86-1.93l5.86,1.94c0.08,0.02,0.16,0.04,0.24,0.04
		c0.08,0,0.16-0.01,0.24-0.04l6.11-2.01c0.38-0.14,0.62-0.51,0.6-0.91L20,0.97z M18.3,2.22v14.1l-4.4,1.46V3.68L18.3,2.22z
		 M12.2,3.68v14.1l-4.4-1.46l0-14.11L12.2,3.68z M6.1,2.22v14.11l-4.4,1.44V3.68L6.1,2.22z"/>
</g>
</svg>
