<?xml version="1.0" encoding="utf-8"?>
<!-- Generator: Adobe Illustrator 25.0.0, SVG Export Plug-In . SVG Version: 6.00 Build 0)  -->
<svg version="1.1" xmlns="http://www.w3.org/2000/svg" xmlns:xlink="http://www.w3.org/1999/xlink" x="0px" y="0px"
	 viewBox="0 0 20 20" enable-background="new 0 0 20 20" xml:space="preserve">
<g id="Calque_2" display="none">
	<rect display="inline" fill="#E0E0E0" width="20" height="20"/>
</g>
<g id="Calque_3">
	<g id="Icon" transform="translate(-270 -55)">
		<g id="Groupe_679" transform="translate(0 -5)">
			<path id="Tracé_484" fill="#FFFFFF" d="M287.62,60.75c-0.15-0.16-0.37-0.25-0.59-0.25h-0.06c-0.22-0.01-0.44,0.08-0.59,0.25
				l-2.19,2.41c-0.26,0.28-0.24,0.71,0.04,0.97c0.01,0.01,0.03,0.02,0.04,0.03l0.02,0.02c0.33,0.26,0.81,0.22,1.1-0.09l0.89-0.99
				v4.68c0.03,0.42,0.38,0.74,0.8,0.72c0.4,0,0.73-0.32,0.75-0.72v-4.57l0.8,0.87c0.29,0.31,0.76,0.35,1.1,0.09
				c0.16-0.12,0.26-0.3,0.28-0.49c0.02-0.19-0.05-0.38-0.18-0.52L287.62,60.75z"/>
		</g>
		<g>
			<defs>
				<polygon id="SVGID_1_" points="281,74.5 270,74.5 270,55.5 281,55.5 281,63.28 281.61,63.71 283.78,66.5 290,66.5 290,74.5 				
					"/>
			</defs>
			<clipPath id="SVGID_2_">
				<use xlink:href="#SVGID_1_"  overflow="visible"/>
			</clipPath>
			<g id="Groupe_de_masques_9" clip-path="url(#SVGID_2_)">
				<g id="Ellipse_35" transform="translate(270 55)">
					<circle fill="none" cx="9.5" cy="10" r="9.5"/>
					<path fill="#FFFFFF" d="M9.5,19.5C4.26,19.5,0,15.24,0,10c0-5.24,4.26-9.5,9.5-9.5c5.24,0,9.5,4.26,9.5,9.5
						C19,15.24,14.74,19.5,9.5,19.5z M9.5,2.5C5.36,2.5,2,5.87,2,10s3.36,7.5,7.5,7.5S17,14.13,17,10S13.63,2.5,9.5,2.5z"/>
				</g>
			</g>
		</g>
		<path id="Tracé_340" fill="#FFFFFF" d="M280.37,60.5c-2.08-0.01-3.91,1.37-4.47,3.37h-1.61L274,65h1.74
			c0,0.19,0.01,0.38,0.04,0.56h-1.5l-0.27,1.12h2.08c1.03,2.37,3.78,3.46,6.15,2.43c0.16-0.07,0.31-0.14,0.46-0.23v-1.37
			c-0.64,0.56-1.47,0.86-2.32,0.86c-1.23,0.01-2.37-0.63-3-1.69h3.77l0.4-1.12h-4.58c-0.03-0.19-0.05-0.37-0.05-0.56h4.81l0.4-1.12
			h-5.01c0.51-1.37,1.82-2.26,3.28-2.25c0.82,0,1.61,0.28,2.24,0.79l0.38-1.13C282.23,60.77,281.31,60.5,280.37,60.5L280.37,60.5z"
			/>
	</g>
</g>
</svg>
