<?xml version="1.0" encoding="utf-8"?>
<!-- Generator: Adobe Illustrator 25.0.0, SVG Export Plug-In . SVG Version: 6.00 Build 0)  -->
<svg version="1.1" xmlns="http://www.w3.org/2000/svg" xmlns:xlink="http://www.w3.org/1999/xlink" x="0px" y="0px"
	 viewBox="0 0 20 20" enable-background="new 0 0 20 20" xml:space="preserve">
<g id="Calque_2" display="none">
	<rect display="inline" fill="#E0E0E0" width="20" height="20"/>
</g>
<g id="Calque_4">
	<g id="Icon" transform="translate(-270 -54)">
		<g id="Groupe_682">
			<g id="Groupe_681">
				<path id="Tracé_503" fill="#FFFFFF" d="M289.72,63.3l-9.04-9.02c-0.38-0.37-0.98-0.37-1.36,0l-9.03,9.02
					c-0.18,0.17-0.28,0.41-0.29,0.66c0,0.25,0.09,0.5,0.27,0.68l0.02,0.02c0.38,0.36,0.97,0.36,1.35,0l8.36-8.33l8.37,8.33
					c0.38,0.36,0.98,0.36,1.35,0C290.09,64.27,290.09,63.67,289.72,63.3C289.72,63.3,289.72,63.3,289.72,63.3z"/>
			</g>
		</g>
		<path id="Rectangle_366" fill="#FFFFFF" d="M273,66L273,66c0.55,0,1,0.45,1,1v6c0,0.55-0.45,1-1,1l0,0c-0.55,0-1-0.45-1-1v-6
			C272,66.45,272.45,66,273,66z"/>
		<path id="Rectangle_367" fill="#FFFFFF" d="M287,66L287,66c0.55,0,1,0.45,1,1v6c0,0.55-0.45,1-1,1l0,0c-0.55,0-1-0.45-1-1v-6
			C286,66.45,286.45,66,287,66z"/>
		<g id="Groupe_679">
			<path id="Tracé_484" fill="#FFFFFF" d="M283.75,64.62c0.16-0.15,0.25-0.37,0.25-0.59v-0.06c0.01-0.22-0.08-0.44-0.25-0.59
				l-2.41-2.19c-0.28-0.26-0.71-0.24-0.97,0.04c-0.01,0.01-0.02,0.03-0.03,0.04l-0.02,0.02c-0.26,0.33-0.22,0.81,0.09,1.1l0.99,0.89
				h-4.68c-0.42,0.03-0.74,0.38-0.72,0.8c0,0.4,0.32,0.73,0.72,0.75h4.57l-0.87,0.8c-0.31,0.29-0.35,0.76-0.09,1.1
				c0.12,0.16,0.3,0.26,0.49,0.28c0.19,0.02,0.38-0.05,0.52-0.18L283.75,64.62z"/>
			<path id="Tracé_484-2" fill="#FFFFFF" d="M276.25,71.62c-0.16-0.15-0.25-0.37-0.25-0.59v-0.06c-0.01-0.22,0.08-0.44,0.25-0.59
				l2.41-2.19c0.28-0.26,0.71-0.24,0.97,0.04c0.01,0.01,0.02,0.03,0.03,0.04l0.02,0.02c0.26,0.33,0.22,0.81-0.09,1.1l-0.98,0.89
				h4.68c0.42,0.03,0.74,0.38,0.72,0.8c0,0.4-0.32,0.73-0.72,0.75h-4.57l0.87,0.8c0.31,0.29,0.35,0.76,0.09,1.1
				c-0.12,0.16-0.3,0.26-0.49,0.27c-0.19,0.02-0.38-0.05-0.52-0.18L276.25,71.62z"/>
		</g>
	</g>
</g>
</svg>
