<?xml version="1.0" encoding="utf-8"?>
<!-- Generator: Adobe Illustrator 21.0.0, SVG Export Plug-In . SVG Version: 6.00 Build 0)  -->
<svg version="1.1" id="Layer_2" xmlns="http://www.w3.org/2000/svg" xmlns:xlink="http://www.w3.org/1999/xlink" x="0px" y="0px"
	 viewBox="0 0 512 512" style="enable-background:new 0 0 512 512;" xml:space="preserve">
<style type="text/css">
	.st0{fill:#FFFFFF;}
</style>
<g>
	<path class="st0" d="M288,89.2c-5.9,0-10.7-4.8-10.7-10.7V42.7c0-11.8-9.6-21.3-21.3-21.3c-11.8,0-21.3,9.6-21.3,21.3v35.8
		c0,5.9-4.8,10.7-10.7,10.7s-10.7-4.8-10.7-10.7V42.7C213.3,19.1,232.5,0,256,0s42.7,19.1,42.7,42.7v35.8
		C298.7,84.4,293.9,89.2,288,89.2z"/>
</g>
<g>
	<path class="st0" d="M256,512c-41.2,0-74.7-33.5-74.7-74.7c0-5.9,4.8-10.7,10.7-10.7s10.7,4.8,10.7,10.7
		c0,29.4,23.9,53.3,53.3,53.3s53.3-23.9,53.3-53.3c0-5.9,4.8-10.7,10.7-10.7s10.7,4.8,10.7,10.7C330.7,478.5,297.2,512,256,512z"/>
</g>
<g>
	<path class="st0" d="M437.3,448H74.7c-17.6,0-32-14.4-32-32c0-9.4,4.1-18.2,11.2-24.3c33.6-28.4,52.8-69.8,52.8-113.5v-64.8
		C106.7,131,173.7,64,256,64s149.3,67,149.3,149.3v64.8c0,43.8,19.2,85.1,52.6,113.4c7.3,6.3,11.4,15.1,11.4,24.5
		C469.3,433.6,455,448,437.3,448z M256,85.3c-70.6,0-128,57.4-128,128v64.8c0,50.1-21.9,97.3-60.2,129.7c-2.5,2.1-3.8,5.1-3.8,8.2
		c0,5.9,4.8,10.7,10.7,10.7h362.7c5.9,0,10.7-4.8,10.7-10.7c0-3.1-1.4-6.1-3.7-8.1C406,375.5,384,328.2,384,278.1v-64.8
		C384,142.7,326.6,85.3,256,85.3L256,85.3z"/>
</g>
</svg>
