<svg xmlns="http://www.w3.org/2000/svg" width="37.035" height="47.586" viewBox="0 0 37.035 47.586"><defs><style>.a{fill:#1a202c;opacity:0.235;}.a,.b{fill-rule:evenodd;}.b{fill:#fff;}</style></defs><g transform="translate(-724 -359)"><path class="a" d="M273.753,420.03c-10.224,0-18.516,1.756-18.516,3.924,0,.8,1.144,1.55,3.1,2.173.036.016.029.032.084.047.65.178,7.96,2.1,11.7,3.083h.041a18.169,18.169,0,0,0,7.189,0h.034c3.794-1,11.211-2.95,11.678-3.074.061-.017.046-.032.085-.048,1.971-.624,3.124-1.374,3.124-2.181C292.272,421.786,283.98,420.03,273.753,420.03Zm-.006,5.453c-3.992,0-7.227-.685-7.227-1.531s3.235-1.531,7.227-1.531,7.226.686,7.226,1.531S277.736,425.483,273.747,425.483Z" transform="translate(468.763 -23.03)"/><path class="b" d="M273.753,420.03a18.684,18.684,0,0,0-15.415,28.992c.036.076.029.154.084.225.65.849,7.96,9.994,11.7,14.661h.041a4.637,4.637,0,0,0,7.189,0h.034c3.794-4.747,11.211-14.03,11.678-14.62.061-.079.046-.152.085-.228a18.687,18.687,0,0,0-15.395-29.03Zm-.006,25.933a7.282,7.282,0,1,1,7.226-7.283A7.254,7.254,0,0,1,273.747,445.963Z" transform="translate(468.763 -61.03)"/></g></svg>